<?xml version="1.0" standalone="no"?>
<!DOCTYPE svg PUBLIC "-//W3C//DTD SVG 20010904//EN"
 "http://www.w3.org/TR/2001/REC-SVG-20010904/DTD/svg10.dtd">
<svg version="1.0" xmlns="http://www.w3.org/2000/svg"
 width="337.000000pt" height="222.000000pt" viewBox="0 0 337.000000 222.000000"
 preserveAspectRatio="xMidYMid meet">

<g transform="translate(0.000000,222.000000) scale(0.100000,-0.100000)"
fill="#000000" stroke="none">
<path d="M1466 2118 c-37 -64 -60 -161 -52 -228 7 -59 53 -165 84 -193 18 -17
20 -15 53 50 32 64 34 74 34 169 0 96 -2 104 -35 169 -19 38 -40 70 -47 72 -6
2 -23 -15 -37 -39z"/>
<path d="M2022 2047 c-11 -12 -33 -49 -49 -82 -23 -50 -27 -73 -27 -140 0 -69
5 -90 34 -153 18 -39 36 -72 41 -72 12 0 47 53 77 117 22 48 26 72 26 138 0
69 -5 89 -33 148 -17 37 -36 67 -40 67 -4 0 -17 -10 -29 -23z"/>
<path d="M1766 1919 c-46 -48 -80 -97 -105 -148 -35 -74 -36 -79 -35 -191 0
-77 6 -128 16 -155 l15 -40 70 68 c143 138 185 314 120 501 l-13 38 -68 -73z"/>
<path d="M1126 1883 c9 -65 34 -135 65 -180 42 -60 136 -120 218 -138 l34 -7
-6 47 c-18 125 -115 249 -231 293 -80 31 -86 29 -80 -15z"/>
<path d="M2218 1626 c-89 -32 -154 -86 -213 -179 -26 -40 -8 -49 90 -44 92 4
166 32 229 87 44 39 108 129 100 142 -8 13 -165 9 -206 -6z"/>
<path d="M955 1604 c-24 -6 -108 -36 -114 -40 -2 -2 6 -16 18 -33 34 -47 115
-101 194 -128 60 -21 84 -25 152 -21 77 5 195 34 195 49 0 17 -118 113 -174
141 -53 27 -73 31 -156 34 -52 2 -104 1 -115 -2z"/>
<path d="M1071 1301 c-23 -6 -22 -8 15 -19 56 -17 151 -80 201 -134 93 -102
113 -181 113 -448 0 -213 -10 -275 -56 -361 -31 -56 -94 -119 -149 -148 -39
-21 -51 -21 -592 -21 l-553 0 0 -55 0 -55 750 0 750 0 0 416 c0 440 -4 483
-50 574 -32 63 -99 139 -153 175 -84 56 -216 92 -276 76z"/>
<path d="M2185 1303 c-200 -27 -358 -173 -400 -370 -11 -53 -15 -160 -15 -470
l0 -403 770 0 770 0 0 55 0 55 -572 0 c-555 0 -573 1 -614 20 -56 28 -129 108
-162 178 l-27 57 0 270 0 270 37 78 c46 95 117 168 211 215 36 17 71 32 79 33
7 0 4 4 -7 9 -21 9 -23 9 -70 3z"/>
<path d="M997 1169 c-86 -14 -177 -84 -234 -178 l-24 -40 27 -7 c84 -21 238
30 303 101 46 50 76 104 64 115 -14 13 -86 18 -136 9z"/>
<path d="M2202 1171 c-18 -5 -35 -11 -37 -13 -9 -8 64 -105 99 -132 65 -49
124 -69 208 -70 42 -1 80 2 84 6 9 10 -35 77 -81 122 -71 71 -188 108 -273 87z"/>
</g>
</svg>
